<svg width="361" height="100.00000000000001" xmlns="http://www.w3.org/2000/svg">

 <g>
  <title>background</title>
  <rect fill="none" id="canvas_background" height="102" width="363" y="-1" x="-1"/>
 </g>
 <g>
  <title>Layer 1</title>
  <path stroke="null" fill="#808080" id="svg_1" d="m70.439547,42.726167l-30.298598,0c-0.779535,0 -1.413339,0.633804 -1.413339,1.419244l0,14.81016c0,0.78544 0.633804,1.416103 1.413339,1.416103l11.822927,0l0,18.410092c0,0 -2.656449,0.886572 -9.987094,0.886572c-8.657675,0 -20.748571,-3.171407 -20.748571,-29.748589c0,-26.588614 12.587763,-30.087288 24.410816,-30.087288c10.234459,0 14.63767,1.797014 17.446132,2.66851c0.880667,0.276763 1.683946,-0.606919 1.683946,-1.395123l3.385607,-14.310529c0,-0.365835 -0.130781,-0.806169 -0.535436,-1.103661c-1.142606,-0.803153 -8.092591,-4.691658 -25.642745,-4.691658c-20.23085,0 -40.976532,8.604031 -40.976532,49.970268c0,41.360206 23.750504,47.518721 43.767154,47.518721c16.56848,0 26.636228,-7.074736 26.636228,-7.074736c0.410559,-0.22626 0.452269,-0.803405 0.452269,-1.065218l0,-46.203625c-0.005905,-0.779535 -0.642598,-1.419244 -1.416103,-1.419244zm153.224926,-38.191688l-17.047382,0c-0.78544,0 -1.415977,0.633678 -1.415977,1.419118l0,32.964469l-26.585725,0l0,-32.964469c0,-0.78544 -0.636694,-1.419118 -1.404294,-1.419118l-17.065347,0c-0.767726,0 -1.392484,0.633678 -1.392484,1.419118l0,89.256823c0,0.791344 0.630789,1.422133 1.392484,1.422133l17.065347,0c0.779284,0 1.404294,-0.636694 1.404294,-1.422133l0,-38.170959l26.585725,0l-0.059674,38.176864c0,0.79147 0.630789,1.416103 1.392484,1.416103l17.071252,0c0.78544,0 1.398389,-0.636694 1.398389,-1.416103l0.059423,-89.262853c0.011809,-0.785314 -0.624884,-1.418992 -1.398515,-1.418992zm-132.845331,2.023022c-6.075097,0 -11.001934,4.971436 -11.001934,11.106081c0,6.137661 4.926837,11.109222 11.001934,11.109222s10.996029,-4.971436 10.996029,-11.109222c0.000126,-6.13452 -4.920807,-11.106081 -10.996029,-11.106081zm9.788095,28.629727c0,-0.779535 -0.630663,-1.425148 -1.398389,-1.425148l-17.011577,0c-0.7975,0 -1.475652,0.803279 -1.475652,1.591734c0,0 0,49.580437 0,59.029457c0,1.72553 1.076902,2.249156 2.475291,2.249156c0,0 7.247352,0 15.321726,0c1.672263,0 2.112345,-0.821119 2.112345,-2.284961c-0.011809,-3.165503 -0.011809,-15.554016 -0.011809,-17.957824c-0.011935,-2.284835 -0.011935,-41.202415 -0.011935,-41.202415zm189.087432,-1.291227l-16.922506,0c-0.77363,0 -1.392484,0.639709 -1.392484,1.425148l0,43.758234c0,0 -4.302079,3.165503 -10.41901,3.165503c-6.098966,0 -7.729394,-2.766878 -7.729394,-8.758808c0,-5.97409 0,-38.170834 0,-38.170834c0,-0.78544 -0.636694,-1.425274 -1.398389,-1.425274l-17.166479,0c-0.78544,0 -1.404294,0.639834 -1.404294,1.425274c0,0 0,23.307029 0,41.056809c0,17.749529 9.895384,22.099095 23.49158,22.099095c11.16274,0 20.177331,-6.170324 20.177331,-6.170324s0.422494,3.236986 0.636694,3.623676c0.178646,0.38669 0.684307,0.77363 1.237708,0.77363l10.877058,0c0.77363,0 1.404294,-0.636819 1.404294,-1.422259l0.047614,-59.960502c-0.035553,-0.779786 -0.666342,-1.419369 -1.439721,-1.419369zm46.352371,-2.011213c-9.615605,0 -16.155031,4.290018 -16.155031,4.290018l0,-30.22121c0,-0.78544 -0.636694,-1.419118 -1.398389,-1.419118l-17.118865,0c-0.767475,0 -1.398389,0.633678 -1.398389,1.419118l-0.047614,89.262853c0,0.79147 0.636694,1.416103 1.410198,1.416103c0,0 11.906345,0 11.918406,0c0.529531,0 0.928281,-0.273748 1.231804,-0.749761c0.297618,-0.482043 0.719861,-4.117528 0.719861,-4.117528s6.979634,6.628623 20.23085,6.628623c15.553891,0 24.467475,-7.890075 24.467475,-35.41589c0.000251,-27.490262 -14.244699,-31.093208 -23.860304,-31.093208zm-6.676111,50.300549c-5.867053,-0.17852 -9.841865,-2.844266 -9.841865,-2.844266l0,-28.275576c0,0 3.933103,-2.412852 8.752903,-2.838362c6.098966,-0.541466 11.989889,1.297257 11.989889,15.84573c-0.030026,15.327757 -2.683711,18.356322 -10.900927,18.112474zm-179.48351,-0.321362c-0.749886,0 -2.665746,0.297492 -4.629471,0.297492c-6.271457,0 -8.413576,-2.921655 -8.413576,-6.699981c0,-3.796292 0,-25.107184 0,-25.107184l12.804978,0c0.78544,0 1.404294,-0.633678 1.404294,-1.425023l0,-13.753988c0.011809,-0.791344 -0.618854,-1.425148 -1.404294,-1.425148l-12.804978,0l-0.017965,-16.901651c0,-0.639709 -0.339076,-0.95793 -1.076902,-0.95793l-17.428418,0c-0.672373,0 -1.047253,0.300382 -1.047253,0.952025l0,17.466987c0,0 -8.740843,2.10933 -9.330048,2.284961c-0.583049,0.166586 -1.011448,0.714082 -1.011448,1.359569l0,10.981079c0,0.78544 0.636694,1.425148 1.404294,1.425148l8.937203,0c0,0 0,11.475057 0,26.410219c0,19.611996 13.763159,21.539916 23.045467,21.539916c4.236625,0 9.306178,-1.380424 10.156946,-1.677916c0.511817,-0.17852 0.803405,-0.708177 0.803405,-1.273387l0.005905,-12.073182c0,-0.791219 -0.660312,-1.433942 -1.398138,-1.422008z"/>
 </g>
</svg>