<svg width="512" height="512" xmlns="http://www.w3.org/2000/svg">

 <g>
  <title>background</title>
  <rect fill="none" id="canvas_background" height="402" width="582" y="-1" x="-1"/>
 </g>
 <g>
  <title>Layer 1</title>
  <rect fill="#808080" y="-512" x="-512" width="512" transform="scale(-1) " ry="70" rx="70" id="rect2989" height="512"/>
  <rect transform="matrix(1.2026312,0,0,1.2026312,-54.384104,-52.796039) " fill="#141414" y="203.761" x="112.57325" width="63.599083" id="rect3163" height="196.94901"/>
  <path fill="#141414" id="path3165" d="m119.736341,158.136995c20.974441,0 37.991047,-16.852579 37.991047,-37.622573c0,-20.793674 -17.016606,-37.624738 -37.991047,-37.624738c-20.988175,0 -37.992034,16.831064 -37.992034,37.624738c0,20.769994 17.003858,37.622573 37.992034,37.622573z"/>
  <path fill="#141414" id="path3167" d="m430.897777,298.243602c-0.450987,-12.432801 2.359562,-53.505062 -27.38752,-82.880532c-15.596924,-15.409314 -23.474158,-22.663585 -61.444833,-22.663585c-30.507146,0 -59.092487,19.739989 -70.428488,35.439136l0,-34.697113l-77.906449,0l0,234.533529l77.906449,0c0,0 0,-107.842345 0,-133.696511c0,-19.256531 9.999878,-39.68683 37.213017,-39.68683c27.244407,0 44.224357,21.943209 44.224357,47.121496l0,126.261844l77.925691,0l0,-129.731435l-0.102224,0z"/>
 </g>
</svg>