<svg width="66" height="66" xmlns="http://www.w3.org/2000/svg" clip-rule="evenodd">

 <g>
  <title>background</title>
  <rect fill="none" id="canvas_background" height="68" width="68" y="-1" x="-1"/>
 </g>
 <g>
  <title>Layer 1</title>
  <path fill="#808080" stroke="null" id="svg_1" d="m33.000002,1.073278c17.620807,0 31.926722,14.305915 31.926722,31.926722c0,17.620807 -14.305915,31.926722 -31.926722,31.926722c-17.620807,0 -31.926722,-14.305915 -31.926722,-31.926722c0,-17.620807 14.305915,-31.926722 31.926722,-31.926722zm-5.623468,48.907497c14.127948,0 21.852843,-11.70688 21.852843,-21.852718c0,-0.334482 0,-0.668965 -0.015963,-0.987608c1.497189,-1.083014 2.803316,-2.436907 3.838565,-3.981861c-1.369731,0.605236 -2.851081,1.01941 -4.411999,1.210472c1.592844,-0.955682 2.803316,-2.45287 3.37675,-4.252614c-1.48135,0.875989 -3.121835,1.513027 -4.873938,1.863473c-1.401658,-1.497189 -3.392588,-2.420943 -5.606507,-2.420943c-4.236776,0 -7.677129,3.440354 -7.677129,7.677129c0,0.605236 0.063729,1.194508 0.207025,1.751979c-6.386966,-0.318519 -12.041363,-3.376625 -15.832037,-8.027575c-0.653126,1.130904 -1.035374,2.45287 -1.035374,3.854528c0,2.659895 1.353893,5.017234 3.424515,6.386966c-1.258362,-0.031802 -2.437032,-0.382248 -3.47228,-0.955557l0,0.095531c0,3.727071 2.643932,6.816979 6.163977,7.533833c-0.637038,0.175098 -1.321966,0.270754 -2.022732,0.270754c-0.493866,0 -0.971645,-0.047765 -1.449423,-0.143421c0.97152,3.058106 3.806638,5.272149 7.167424,5.335753c-2.628093,2.054784 -5.940989,3.281219 -9.540727,3.281219c-0.621199,0 -1.226435,-0.031927 -1.831671,-0.111494c3.360786,2.197955 7.406376,3.472156 11.738682,3.472156z"/>
 </g>
</svg>